<svg width="30" height="31" viewBox="0 0 30 31" fill="none" xmlns="http://www.w3.org/2000/svg">
<g id="Group">
<path id="Vector" d="M22.5 10.1172H20C20 7.28994 17.7625 5 15 5C12.2375 5 10 7.28994 10 10.1172H7.5C6.125 10.1172 5 11.2686 5 12.6758V28.0273C5 29.4346 6.125 30.5859 7.5 30.5859H22.5C23.875 30.5859 25 29.4346 25 28.0273V12.6758C25 11.2686 23.875 10.1172 22.5 10.1172ZM15 7.55859C16.375 7.55859 17.5 8.70996 17.5 10.1172H12.5C12.5 8.70996 13.625 7.55859 15 7.55859ZM22.5 28.0273H7.5V12.6758H10V15.2344C10 15.938 10.5625 16.5137 11.25 16.5137C11.9375 16.5137 12.5 15.938 12.5 15.2344V12.6758H17.5V15.2344C17.5 15.938 18.0625 16.5137 18.75 16.5137C19.4375 16.5137 20 15.938 20 15.2344V12.6758H22.5V28.0273Z" fill="white"/>
</g>
</svg>
