<svg width="25" height="23" viewBox="0 0 25 23" fill="none" xmlns="http://www.w3.org/2000/svg">
<path id="Vector" d="M18.1168 14.676L17.6836 15.1697C19.1998 13.558 20.1126 11.4656 20.1126 9.18948C20.1126 4.11406 15.6105 0 10.0563 0C4.50213 0 0 4.11406 0 9.18948C0 14.2649 4.50213 18.379 10.0563 18.379C12.5472 18.379 14.8369 17.5448 16.6006 16.1593L15.7118 16.5552L17.0183 17.6721L22.6948 22.8451L25 20.7386L18.1168 14.676ZM10.0563 15.5514C6.20396 15.5514 3.09424 12.7098 3.09424 9.18948C3.09424 5.6692 6.20396 2.82753 10.0563 2.82753C13.9086 2.82753 17.0183 5.6692 17.0183 9.18948C17.0183 12.7098 13.9086 15.5514 10.0563 15.5514Z" fill="white"/>
</svg>
